<svg width="20" height="20" viewBox="0 0 20 20" fill="none" xmlns="http://www.w3.org/2000/svg">
<path d="M10 20C15.5228 20 20 15.5228 20 10C20 4.47717 15.5228 0 10 0C4.47717 0 0 4.47717 0 10C0 15.5228 4.47717 20 10 20Z" fill="#4B5EF5"/>
<path d="M4.5 6.91667C4.5 6.41042 4.91042 6 5.41667 6H14.5833C15.0896 6 15.5 6.41042 15.5 6.91667V13.3333C15.5 13.8396 15.0896 14.25 14.5833 14.25H5.41667C4.91042 14.25 4.5 13.8396 4.5 13.3333V6.91667Z" fill="url(#paint0_linear_1_1018)"/>
<path d="M5.41551 14.2502C5.16289 14.2498 4.93418 14.1473 4.76855 13.9817L10 9.2085L15.2316 13.9817C15.0658 14.1475 14.8368 14.25 14.5838 14.2502H5.41676H5.41551Z" fill="url(#paint1_linear_1_1018)"/>
<path d="M14.5833 6H5.41666C5.01395 6 4.67191 6.25967 4.54883 6.62067L9.99999 10.125L15.4512 6.62067C15.328 6.25967 14.986 6 14.5833 6Z" fill="url(#paint2_linear_1_1018)"/>
<defs>
<linearGradient id="paint0_linear_1_1018" x1="1.5" y1="1.5" x2="1.5" y2="14.25" gradientUnits="userSpaceOnUse">
<stop stop-color="#B9C6D5"/>
<stop offset="1" stop-color="white"/>
</linearGradient>
<linearGradient id="paint1_linear_1_1018" x1="4.76858" y1="9.2085" x2="4.76858" y2="14.2502" gradientUnits="userSpaceOnUse">
<stop stop-color="#B9C6D5"/>
<stop offset="1" stop-color="white"/>
</linearGradient>
<linearGradient id="paint2_linear_1_1018" x1="5.15455" y1="6" x2="5.15455" y2="9.66667" gradientUnits="userSpaceOnUse">
<stop stop-color="white"/>
<stop offset="1" stop-color="white"/>
</linearGradient>
</defs>
</svg>
