<svg width="20" height="20" viewBox="0 0 20 20" fill="none" xmlns="http://www.w3.org/2000/svg">
<path opacity="0.01" fill-rule="evenodd" clip-rule="evenodd" d="M20 0V20H0V0H20Z" fill="white"/>
<path d="M15 1.25C17.0709 1.25003 18.7498 2.92913 18.75 5V15C18.75 17.071 17.071 18.75 15 18.75H5C2.92908 18.7498 1.25 17.071 1.25 15V5C1.25021 2.92922 2.92921 1.25018 5 1.25H15ZM11 11.875C10.655 11.8751 10.3752 12.1551 10.375 12.5C10.375 12.8451 10.6549 13.1249 11 13.125H14C14.3452 13.125 14.625 12.8452 14.625 12.5C14.6248 12.155 14.345 11.875 14 11.875H11Z" fill="#B9BCC5"/>
<path fill-rule="evenodd" clip-rule="evenodd" d="M5.01939 7.0999C5.24037 6.83473 5.63447 6.7989 5.89964 7.01988L8.89964 9.51988C9.04214 9.63862 9.12453 9.81453 9.12453 10C9.12453 10.1855 9.04214 10.3614 8.89964 10.4802L5.89964 12.9802C5.63447 13.2011 5.24037 13.1653 5.01939 12.9001C4.79841 12.635 4.83424 12.2409 5.09941 12.0199L7.52325 10L5.09941 7.98015C4.83424 7.75918 4.79841 7.36507 5.01939 7.0999Z" fill="#73798B"/>
</svg>
