<svg width="180" height="40" viewBox="0 0 180 40" fill="none" xmlns="http://www.w3.org/2000/svg">
  <!-- 图标部分 -->
  <g transform="translate(0, 4)">
    <ellipse cx="20" cy="16" rx="16" ry="16" fill="#4B5EF5"/>
    <g filter="url(#filter0_d_combined)">
      <path d="M26.5 8C26.8 8 27 8.2 27.1 8.4L31 18C31.2 18.4 30.9 18.8 30.5 18.8L24.5 18.8C24.2 18.8 24 18.6 23.9 18.4L20 8.8C19.8 8.4 20.1 8 20.5 8L26.5 8Z" fill="url(#paint0_linear_combined)" fill-opacity="0.9" shape-rendering="crispEdges"/>
    </g>
    <g filter="url(#filter1_d_combined)">
      <path d="M21.5 18.8C21.8 18.8 22 18.6 22.1 18.4L26 8.8C26.2 8.4 25.9 8 25.5 8L19.5 8C19.2 8 19 8.2 18.9 8.4L15 18C14.8 18.4 15.1 18.8 15.5 18.8L21.5 18.8Z" fill="url(#paint1_linear_combined)" fill-opacity="0.7" shape-rendering="crispEdges"/>
    </g>
  </g>
  
  <!-- 文字部分 -->
  <text x="50" y="24" font-family="Inter, system-ui, sans-serif" font-size="20" font-weight="600" fill="#1c1c1c">alphatoken</text>
  
  <defs>
    <filter id="filter0_d_combined" x="14" y="4" width="23" height="20" filterUnits="userSpaceOnUse" color-interpolation-filters="sRGB">
      <feFlood flood-opacity="0" result="BackgroundImageFix"/>
      <feColorMatrix in="SourceAlpha" type="matrix" values="0 0 0 0 0 0 0 0 0 0 0 0 0 0 0 0 0 0 127 0" result="hardAlpha"/>
      <feOffset dy="2"/>
      <feGaussianBlur stdDeviation="3"/>
      <feComposite in2="hardAlpha" operator="out"/>
      <feColorMatrix type="matrix" values="0 0 0 0 0 0 0 0 0 0 0 0 0 0 0 0 0 0 0.1 0"/>
      <feBlend mode="normal" in2="BackgroundImageFix" result="effect1_dropShadow_combined"/>
      <feBlend mode="normal" in="SourceGraphic" in2="effect1_dropShadow_combined" result="shape"/>
    </filter>
    <filter id="filter1_d_combined" x="9" y="4" width="23" height="20" filterUnits="userSpaceOnUse" color-interpolation-filters="sRGB">
      <feFlood flood-opacity="0" result="BackgroundImageFix"/>
      <feColorMatrix in="SourceAlpha" type="matrix" values="0 0 0 0 0 0 0 0 0 0 0 0 0 0 0 0 0 0 127 0" result="hardAlpha"/>
      <feOffset dy="2"/>
      <feGaussianBlur stdDeviation="3"/>
      <feComposite in2="hardAlpha" operator="out"/>
      <feColorMatrix type="matrix" values="0 0 0 0 0 0 0 0 0 0 0 0 0 0 0 0 0 0 0.1 0"/>
      <feBlend mode="normal" in2="BackgroundImageFix" result="effect2_dropShadow_combined"/>
      <feBlend mode="normal" in="SourceGraphic" in2="effect2_dropShadow_combined" result="shape"/>
    </filter>
    <linearGradient id="paint0_linear_combined" x1="31" y1="13.4" x2="20" y2="13.4" gradientUnits="userSpaceOnUse">
      <stop stop-color="white"/>
      <stop offset="1" stop-color="white" stop-opacity="0.5"/>
    </linearGradient>
    <linearGradient id="paint1_linear_combined" x1="26" y1="13.4" x2="15" y2="13.4" gradientUnits="userSpaceOnUse">
      <stop stop-color="white"/>
      <stop offset="1" stop-color="white" stop-opacity="0.5"/>
    </linearGradient>
  </defs>
</svg>