<svg width="35" height="35" viewBox="0 0 35 35" fill="none" xmlns="http://www.w3.org/2000/svg">
<rect opacity="0.1" width="35" height="35" rx="8" fill="#4B5EF5"/>
<path fill-rule="evenodd" clip-rule="evenodd" d="M12.9838 8.77248C11.8244 8.2193 10.6656 8.17611 9.76144 8.71264C8.83939 9.25981 8.33337 10.3197 8.33337 11.6174V23.2463C8.33337 24.6482 9.50579 25.6663 10.7912 25.6663H17C17.9573 25.6663 18.7334 24.8903 18.7334 23.933V13.5825C18.7334 12.963 18.5018 12.3439 18.1751 11.8388C17.8466 11.3307 17.3824 10.8766 16.8428 10.619L12.9838 8.77248ZM11.2454 14.333C11.2454 13.9649 11.5248 13.6664 11.8694 13.6664H14.7814C15.126 13.6664 15.4054 13.9649 15.4054 14.333C15.4054 14.7012 15.126 14.9997 14.7814 14.9997H11.8694C11.5248 14.9997 11.2454 14.7012 11.2454 14.333ZM11.4534 22.333C11.4534 21.8421 11.8259 21.4441 12.2854 21.4441H14.7814C15.2409 21.4441 15.6134 21.8421 15.6134 22.333V23.2219C15.6134 23.7128 15.2409 24.1108 14.7814 24.1108H12.2854C11.8259 24.1108 11.4534 23.7128 11.4534 23.2219V22.333ZM11.2454 16.9997C11.2454 16.6315 11.5248 16.333 11.8694 16.333H14.7814C15.126 16.333 15.4054 16.6315 15.4054 16.9997C15.4054 17.3679 15.126 17.6663 14.7814 17.6663H11.8694C11.5248 17.6663 11.2454 17.3679 11.2454 16.9997Z" fill="#4B5EF5"/>
<path fill-rule="evenodd" clip-rule="evenodd" d="M21.7667 25.6663H24.3667C25.0847 25.6663 25.6667 25.0843 25.6667 24.3663V20.4724C25.6667 20.42 25.6667 20.3751 25.6612 20.3302C25.6282 18.8932 25.0352 18.3843 24.3104 18.1673L21.5852 17.3395C21.0286 17.1704 20.4667 17.5869 20.4667 18.1687V24.3663C20.4667 25.0843 21.0487 25.6663 21.7667 25.6663Z" fill="#4B5EF5"/>
</svg>
