<svg width="20" height="20" viewBox="0 0 20 20" fill="none" xmlns="http://www.w3.org/2000/svg">
<path d="M12.6918 2.16699H16.058C16.6769 2.16699 16.9827 2.28764 17.142 2.4375C17.2935 2.58018 17.4164 2.84872 17.4164 3.41699V9.08398C17.4163 9.65219 17.2936 9.92086 17.142 10.0635C16.9827 10.2133 16.6769 10.334 16.058 10.334H12.6918C12.0728 10.334 11.7671 10.2133 11.6078 10.0635C11.4563 9.92083 11.3334 9.65202 11.3334 9.08398V3.41699C11.3334 2.84894 11.4563 2.58022 11.6078 2.4375C11.7671 2.28764 12.0728 2.16699 12.6918 2.16699Z" fill="#B9BCC5" stroke="#B9BCC5"/>
<path d="M3.94177 9.66699H7.30798C7.92694 9.66699 8.23267 9.78764 8.39197 9.9375C8.54354 10.0802 8.66638 10.3487 8.66638 10.917V16.584C8.66633 17.1522 8.54357 17.4209 8.39197 17.5635C8.23266 17.7133 7.92689 17.834 7.30798 17.834H3.94177C3.32282 17.834 3.01709 17.7133 2.85779 17.5635C2.70625 17.4208 2.58342 17.152 2.58337 16.584V10.917C2.58337 10.3489 2.7063 10.0802 2.85779 9.9375C3.01709 9.78764 3.32282 9.66699 3.94177 9.66699Z" fill="#B9BCC5" stroke="#B9BCC5"/>
<path d="M17.9167 16.5833V14.25C17.9167 13 17.3834 12.5 16.0584 12.5H12.6917C11.3667 12.5 10.8334 13 10.8334 14.25V16.5833C10.8334 17.8333 11.3667 18.3333 12.6917 18.3333H16.0584C17.3834 18.3333 17.9167 17.8333 17.9167 16.5833Z" fill="#73798B"/>
<path d="M9.16671 5.75033V3.41699C9.16671 2.16699 8.63338 1.66699 7.30837 1.66699H3.94171C2.61671 1.66699 2.08337 2.16699 2.08337 3.41699V5.75033C2.08337 7.00033 2.61671 7.50033 3.94171 7.50033H7.30837C8.63338 7.50033 9.16671 7.00033 9.16671 5.75033Z" fill="#73798B"/>
</svg>
