<svg width="32" height="32" viewBox="0 0 32 32" fill="none" xmlns="http://www.w3.org/2000/svg">
  <path d="M16 2C9.373 2 4 7.373 4 14s5.373 12 12 12 12-5.373 12-12S22.627 2 16 2zm0 22c-5.514 0-10-4.486-10-10S10.486 4 16 4s10 4.486 10 10-4.486 10-10 10z" fill="#4B5EF5"/>
  <path d="M16 12c-1.657 0-3 1.343-3 3s1.343 3 3 3 3-1.343 3-3-1.343-3-3-3zm0 4c-.552 0-1-.448-1-1s.448-1 1-1 1 .448 1 1-.448 1-1 1z" fill="#4B5EF5"/>
  <path d="M16 20c-2.21 0-4 1.79-4 4h8c0-2.21-1.79-4-4-4zm0 2c.552 0 1 .448 1 1h-2c0-.552.448-1 1-1z" fill="#4B5EF5"/>
  <circle cx="16" cy="15" r="3" stroke="#4B5EF5" stroke-width="2" fill="none"/>
  <path d="M12 22c0-1.105 1.79-2 4-2s4 .895 4 2v1h-8v-1z" stroke="#4B5EF5" stroke-width="2" fill="none"/>
</svg>