<svg width="20" height="20" viewBox="0 0 20 20" fill="none" xmlns="http://www.w3.org/2000/svg">
<path d="M11.6866 8.31328L8.31328 11.6866C7.87995 11.2533 7.61328 10.6599 7.61328 9.99995C7.61328 8.67995 8.67995 7.61328 9.99995 7.61328C10.6599 7.61328 11.2533 7.87995 11.6866 8.31328Z" stroke="#73798B" stroke-width="1.5" stroke-linecap="round" stroke-linejoin="round"/>
<path d="M13.8799 5.84682C12.7132 4.96682 11.3799 4.48682 9.9999 4.48682C7.64656 4.48682 5.45323 5.87348 3.92656 8.27348C3.32656 9.21348 3.32656 10.7935 3.92656 11.7335C4.45323 12.5602 5.06656 13.2735 5.73323 13.8468" stroke="#73798B" stroke-width="1.5" stroke-linecap="round" stroke-linejoin="round"/>
<path d="M7.61328 15.02C8.37328 15.34 9.17995 15.5133 9.99995 15.5133C12.3533 15.5133 14.5466 14.1266 16.0733 11.7266C16.6733 10.7866 16.6733 9.20662 16.0733 8.26662C15.8533 7.91995 15.6133 7.59329 15.3666 7.28662" stroke="#73798B" stroke-width="1.5" stroke-linecap="round" stroke-linejoin="round"/>
<path d="M12.34 10.4668C12.1666 11.4068 11.4 12.1735 10.46 12.3468" stroke="#73798B" stroke-width="1.5" stroke-linecap="round" stroke-linejoin="round"/>
<path d="M8.31325 11.6865L3.33325 16.6665" stroke="#73798B" stroke-width="1.5" stroke-linecap="round" stroke-linejoin="round"/>
<path d="M16.6668 3.3335L11.6868 8.3135" stroke="#73798B" stroke-width="1.5" stroke-linecap="round" stroke-linejoin="round"/>
</svg>
