<svg width="20" height="20" viewBox="0 0 20 20" fill="none" xmlns="http://www.w3.org/2000/svg">
<path d="M10.0087 2.16895C10.5795 2.16899 11.123 2.29291 11.5135 2.51172L11.5165 2.5127L16.0331 5.0127L16.037 5.01465C16.2641 5.13801 16.493 5.32885 16.7059 5.5625C16.8219 5.70505 16.7917 5.96655 16.5907 6.08398L10.1747 9.80078H10.1737C10.0736 9.85889 9.93862 9.86346 9.82214 9.79883L3.40906 6.08398C3.20687 5.96563 3.18147 5.70634 3.30652 5.56641L3.30945 5.56348C3.51698 5.32738 3.74659 5.14155 3.98035 5.01465L3.98425 5.0127L8.50085 2.5127L8.50281 2.51172C8.89347 2.29281 9.43761 2.16895 10.0087 2.16895Z" fill="#B9BCC5" stroke="#B9BCC5"/>
<path d="M2.35828 8.30762C2.35858 8.01498 2.65105 7.86774 2.86804 7.99219V7.99121L8.8446 11.458C8.95465 11.5296 9.02527 11.6558 9.02527 11.7832V17.4668C9.02502 17.7464 8.75595 17.8978 8.53601 17.792H8.53699C7.68669 17.3751 6.54042 16.7751 5.60339 16.2764C5.13573 16.0275 4.72195 15.804 4.42468 15.6436C4.27606 15.5633 4.15625 15.4987 4.0741 15.4541C4.03336 15.432 4.00176 15.415 3.98035 15.4033C3.96965 15.3975 3.9614 15.3926 3.95593 15.3896C3.9532 15.3882 3.95046 15.3875 3.9491 15.3867L3.94812 15.3857C3.53962 15.1526 3.1378 14.7234 2.83582 14.1982C2.53267 13.671 2.35835 13.0964 2.35828 12.6084V8.30762Z" fill="#B9BCC5" stroke="#B9BCC5"/>
<path d="M17.1322 7.99219C17.3492 7.86774 17.6417 8.01498 17.642 8.30762V12.6084C17.6419 13.0963 17.4675 13.6711 17.1644 14.1982C16.8617 14.7248 16.4578 15.154 16.0482 15.3867H16.0502C16.0488 15.3874 16.0468 15.3883 16.0443 15.3896C16.0388 15.3926 16.0306 15.3975 16.0199 15.4033C15.9984 15.415 15.9662 15.4318 15.9252 15.4541C15.8431 15.4986 15.724 15.5634 15.5756 15.6436C15.2783 15.804 14.8636 16.0275 14.3959 16.2764C13.6932 16.6503 12.8735 17.0821 12.1488 17.4502L11.4633 17.792C11.2434 17.8973 10.9752 17.7462 10.975 17.4668V11.7832C10.975 11.656 11.0449 11.5296 11.1547 11.458L17.1312 7.99121L17.1322 7.99219Z" fill="#73798B" stroke="#73798B"/>
</svg>
