<svg width="24" height="24" viewBox="0 0 24 24" fill="none" xmlns="http://www.w3.org/2000/svg">
<path opacity="0.4" fill-rule="evenodd" clip-rule="evenodd" d="M12.0001 17.5558C9.60286 17.5558 7.55566 17.206 7.55566 15.8052C7.55566 14.4044 9.58987 13.1113 12.0001 13.1113C14.3974 13.1113 16.4446 14.3919 16.4446 15.7927C16.4446 17.1929 14.4103 17.5558 12.0001 17.5558Z" stroke="black" stroke-width="1.5" stroke-linecap="round" stroke-linejoin="round"/>
<path fill-rule="evenodd" clip-rule="evenodd" d="M12.0003 10.8888C13.2276 10.8888 14.2223 9.89407 14.2223 8.66679C14.2223 7.43951 13.2276 6.44434 12.0003 6.44434C10.773 6.44434 9.77785 7.43951 9.77785 8.66679C9.7737 9.88992 10.7615 10.8846 11.9846 10.8888C11.9902 10.8888 11.9952 10.8888 12.0003 10.8888Z" stroke="#73798B" stroke-width="1.5" stroke-linecap="round" stroke-linejoin="round"/>
<path fill-rule="evenodd" clip-rule="evenodd" d="M12.0011 22C17.5238 22 22 17.5238 22 12.001C22 6.47829 17.5238 2 12.0011 2C6.47834 2 2.00006 6.47829 2.00006 12.001C1.98141 17.5051 6.42653 21.9814 11.9306 22C11.9555 22 11.9783 22 12.0011 22Z" stroke="#1C1C1C" stroke-width="1.5" stroke-linecap="round" stroke-linejoin="round"/>
</svg>
