<svg width="20" height="20" viewBox="0 0 20 20" fill="none" xmlns="http://www.w3.org/2000/svg">
<path d="M18 12.5V6.5C18 3.28571 16.7953 2 13.8024 2H6.19765C3.20471 2 2 3.28571 2 6.5V12.5C2 15.7143 3.20471 17 6.19765 17H13.8024C16.7953 17 18 15.7143 18 12.5Z" fill="#4B5EF5"/>
<path d="M11.6587 14.249C11.3628 14.4371 10.9761 14.2246 10.9761 13.874V13.2236H8.67236C7.7192 13.224 5.58078 12.7219 4.98291 10.7979C4.93079 10.63 5.1586 10.5037 5.30322 10.6035C5.75575 10.9166 6.46263 11.2534 7.30811 11.3086C8.25063 11.3701 9.83194 11.3567 10.9761 11.332V10.4775C10.9763 10.1302 11.3568 9.91773 11.6528 10.0996L14.3696 11.7686C14.6495 11.9405 14.6527 12.3463 14.3755 12.5225L11.6587 14.249Z" fill="white"/>
<path d="M7.89844 5.07031C8.19433 4.88225 8.58105 5.09472 8.58105 5.44531V6.0957H10.8848C11.8379 6.09533 13.9764 6.59743 14.5742 8.52148C14.6263 8.68934 14.3985 8.81559 14.2539 8.71582C13.8014 8.40276 13.0945 8.06595 12.249 8.01074C11.3065 7.9492 9.72519 7.96266 8.58105 7.9873V8.8418C8.5808 9.18915 8.20033 9.40161 7.9043 9.21973L5.1875 7.55078C4.90764 7.37884 4.90444 6.97306 5.18164 6.79688L7.89844 5.07031Z" fill="white"/>
</svg>
