<svg width="20" height="20" viewBox="0 0 20 20" fill="none" xmlns="http://www.w3.org/2000/svg">
<path opacity="0.01" fill-rule="evenodd" clip-rule="evenodd" d="M0 20L0 0L20 0L20 20L0 20Z" fill="white"/>
<path d="M18.1 8.17285C18.6038 8.19054 19.0002 8.58816 19.0004 9.07422V10.8955C19.0004 11.3817 18.604 11.7802 18.1 11.7979H16.3363C15.3644 11.7979 14.4731 11.0991 14.392 10.1445C14.338 9.58759 14.554 9.06558 14.932 8.70312C15.265 8.36726 15.724 8.17287 16.2279 8.17285H18.1Z" fill="#73798B"/>
<path d="M4.22559 2.51465C8.10393 2.50408 14.117 2.4918 14.2744 2.51562C16.4254 2.76315 17.8752 4.23072 18.0732 6.37891C18.1002 6.63519 17.8839 6.84753 17.623 6.84766H16.2275C15.3638 6.84773 14.5632 7.17462 13.9873 7.75781C13.3033 8.41199 12.961 9.33159 13.042 10.251C13.186 11.8599 14.626 13.124 16.3359 13.124H17.623C17.8839 13.1241 18.1002 13.3365 18.0732 13.5928C17.8572 15.9531 16.1195 17.5 13.5996 17.5H4.24023C2.45085 17.5 1 16.0491 1 14.2598V5.75391C1 3.96891 2.44064 2.51969 4.22559 2.51465ZM4.75 6.5C4.33579 6.5 4 6.83579 4 7.25C4 7.66421 4.33579 8 4.75 8H8.25C8.66421 8 9 7.66421 9 7.25C9 6.83579 8.66421 6.5 8.25 6.5H4.75Z" fill="#B9BCC5"/>
</svg>
