<svg width="20" height="20" viewBox="0 0 20 20" fill="none" xmlns="http://www.w3.org/2000/svg">
<path d="M11.6866 8.31328L8.31328 11.6866C7.87995 11.2533 7.61328 10.6599 7.61328 9.99995C7.61328 8.67995 8.67995 7.61328 9.99995 7.61328C10.6599 7.61328 11.2533 7.87995 11.6866 8.31328Z" stroke="#B9BCC5" stroke-width="1.5" stroke-linecap="round" stroke-linejoin="round"/>
<path d="M13.8799 5.84657C12.7132 4.96657 11.3799 4.48657 9.9999 4.48657C7.64656 4.48657 5.45323 5.87324 3.92656 8.27324C3.32656 9.21324 3.32656 10.7932 3.92656 11.7332C4.45323 12.5599 5.06656 13.2732 5.73323 13.8466" stroke="#B9BCC5" stroke-width="1.5" stroke-linecap="round" stroke-linejoin="round"/>
<path d="M7.61328 15.02C8.37328 15.34 9.17995 15.5133 9.99995 15.5133C12.3533 15.5133 14.5466 14.1266 16.0733 11.7266C16.6733 10.7866 16.6733 9.20662 16.0733 8.26662C15.8533 7.91995 15.6133 7.59329 15.3666 7.28662" stroke="#B9BCC5" stroke-width="1.5" stroke-linecap="round" stroke-linejoin="round"/>
<path d="M12.3409 10.4666C12.1676 11.4066 11.4009 12.1732 10.4609 12.3466" stroke="#B9BCC5" stroke-width="1.5" stroke-linecap="round" stroke-linejoin="round"/>
<path d="M8.31398 11.6868L3.33398 16.6668" stroke="#B9BCC5" stroke-width="1.5" stroke-linecap="round" stroke-linejoin="round"/>
<path d="M16.6675 3.33325L11.6875 8.31325" stroke="#B9BCC5" stroke-width="1.5" stroke-linecap="round" stroke-linejoin="round"/>
</svg>
