<svg width="20" height="20" viewBox="0 0 20 20" fill="none" xmlns="http://www.w3.org/2000/svg">
<path d="M10 0C15.5228 0 20 4.47715 20 10C20 15.5228 15.5228 20 10 20C4.47715 20 0 15.5228 0 10C0 4.47715 4.47715 0 10 0ZM14.7285 6.79297C14.338 6.40249 13.705 6.40259 13.3145 6.79297L8.02148 12.0859L6.20703 10.2715C5.81655 9.88108 5.18348 9.88113 4.79297 10.2715C4.40247 10.662 4.40251 11.295 4.79297 11.6855L7.31445 14.207C7.70499 14.5974 8.33805 14.5975 8.72852 14.207L14.7285 8.20703C15.1188 7.81655 15.1188 7.18346 14.7285 6.79297Z" fill="#2FE776"/>
</svg>
